<mxfile host="Electron" agent="Mozilla/5.0 (Windows NT 10.0; Win64; x64) AppleWebKit/537.36 (KHTML, like Gecko) draw.io/24.7.17 Chrome/128.0.6613.36 Electron/32.0.1 Safari/537.36" version="24.7.17">
  <diagram id="C5RBs43oDa-KdzZeNtuy" name="Page-1">
    <mxGraphModel dx="1098" dy="988" grid="1" gridSize="10" guides="1" tooltips="1" connect="1" arrows="1" fold="1" page="1" pageScale="1" pageWidth="1200" pageHeight="1920" math="0" shadow="0">
      <root>
        <mxCell id="WIyWlLk6GJQsqaUBKTNV-0" />
        <mxCell id="WIyWlLk6GJQsqaUBKTNV-1" parent="WIyWlLk6GJQsqaUBKTNV-0" />
        <mxCell id="dFkZJ-6sTTjK0_ruSrTg-1" style="edgeStyle=orthogonalEdgeStyle;rounded=0;orthogonalLoop=1;jettySize=auto;html=1;exitX=1;exitY=0.5;exitDx=0;exitDy=0;" edge="1" parent="WIyWlLk6GJQsqaUBKTNV-1" source="dFkZJ-6sTTjK0_ruSrTg-0">
          <mxGeometry relative="1" as="geometry">
            <mxPoint x="290" y="230" as="targetPoint" />
          </mxGeometry>
        </mxCell>
        <mxCell id="dFkZJ-6sTTjK0_ruSrTg-0" value="api/upload" style="rounded=1;whiteSpace=wrap;html=1;" vertex="1" parent="WIyWlLk6GJQsqaUBKTNV-1">
          <mxGeometry x="70" y="200" width="120" height="60" as="geometry" />
        </mxCell>
        <mxCell id="dFkZJ-6sTTjK0_ruSrTg-6" style="edgeStyle=orthogonalEdgeStyle;rounded=0;orthogonalLoop=1;jettySize=auto;html=1;exitX=1;exitY=0.5;exitDx=0;exitDy=0;" edge="1" parent="WIyWlLk6GJQsqaUBKTNV-1" source="dFkZJ-6sTTjK0_ruSrTg-2" target="dFkZJ-6sTTjK0_ruSrTg-5">
          <mxGeometry relative="1" as="geometry" />
        </mxCell>
        <mxCell id="dFkZJ-6sTTjK0_ruSrTg-15" style="edgeStyle=orthogonalEdgeStyle;rounded=0;orthogonalLoop=1;jettySize=auto;html=1;exitX=0.5;exitY=1;exitDx=0;exitDy=0;" edge="1" parent="WIyWlLk6GJQsqaUBKTNV-1" source="dFkZJ-6sTTjK0_ruSrTg-2" target="dFkZJ-6sTTjK0_ruSrTg-4">
          <mxGeometry relative="1" as="geometry" />
        </mxCell>
        <mxCell id="dFkZJ-6sTTjK0_ruSrTg-2" value="EpubProcessor" style="rounded=1;whiteSpace=wrap;html=1;" vertex="1" parent="WIyWlLk6GJQsqaUBKTNV-1">
          <mxGeometry x="290" y="200" width="120" height="60" as="geometry" />
        </mxCell>
        <mxCell id="dFkZJ-6sTTjK0_ruSrTg-3" value="Send file" style="text;html=1;align=center;verticalAlign=middle;resizable=0;points=[];autosize=1;strokeColor=none;fillColor=none;" vertex="1" parent="WIyWlLk6GJQsqaUBKTNV-1">
          <mxGeometry x="210" y="200" width="70" height="30" as="geometry" />
        </mxCell>
        <mxCell id="dFkZJ-6sTTjK0_ruSrTg-4" value="DB" style="shape=cylinder3;whiteSpace=wrap;html=1;boundedLbl=1;backgroundOutline=1;size=15;" vertex="1" parent="WIyWlLk6GJQsqaUBKTNV-1">
          <mxGeometry x="320" y="350" width="60" height="80" as="geometry" />
        </mxCell>
        <mxCell id="dFkZJ-6sTTjK0_ruSrTg-13" style="edgeStyle=orthogonalEdgeStyle;rounded=0;orthogonalLoop=1;jettySize=auto;html=1;exitX=0.5;exitY=0;exitDx=0;exitDy=0;entryX=0.5;entryY=1;entryDx=0;entryDy=0;" edge="1" parent="WIyWlLk6GJQsqaUBKTNV-1" source="dFkZJ-6sTTjK0_ruSrTg-5" target="dFkZJ-6sTTjK0_ruSrTg-9">
          <mxGeometry relative="1" as="geometry" />
        </mxCell>
        <mxCell id="dFkZJ-6sTTjK0_ruSrTg-5" value="Unpack File" style="ellipse;whiteSpace=wrap;html=1;" vertex="1" parent="WIyWlLk6GJQsqaUBKTNV-1">
          <mxGeometry x="510" y="190" width="120" height="80" as="geometry" />
        </mxCell>
        <mxCell id="dFkZJ-6sTTjK0_ruSrTg-14" style="edgeStyle=orthogonalEdgeStyle;rounded=0;orthogonalLoop=1;jettySize=auto;html=1;exitX=0;exitY=0.5;exitDx=0;exitDy=0;entryX=0.5;entryY=0;entryDx=0;entryDy=0;" edge="1" parent="WIyWlLk6GJQsqaUBKTNV-1" source="dFkZJ-6sTTjK0_ruSrTg-9" target="dFkZJ-6sTTjK0_ruSrTg-2">
          <mxGeometry relative="1" as="geometry" />
        </mxCell>
        <mxCell id="dFkZJ-6sTTjK0_ruSrTg-9" value="Data transformation" style="ellipse;whiteSpace=wrap;html=1;" vertex="1" parent="WIyWlLk6GJQsqaUBKTNV-1">
          <mxGeometry x="510" y="50" width="120" height="80" as="geometry" />
        </mxCell>
        <mxCell id="dFkZJ-6sTTjK0_ruSrTg-10" value="Operations" style="text;html=1;align=center;verticalAlign=middle;resizable=0;points=[];autosize=1;strokeColor=none;fillColor=none;" vertex="1" parent="WIyWlLk6GJQsqaUBKTNV-1">
          <mxGeometry x="420" y="200" width="80" height="30" as="geometry" />
        </mxCell>
        <mxCell id="dFkZJ-6sTTjK0_ruSrTg-16" value="Save transformed data" style="text;html=1;align=center;verticalAlign=middle;resizable=0;points=[];autosize=1;strokeColor=none;fillColor=none;" vertex="1" parent="WIyWlLk6GJQsqaUBKTNV-1">
          <mxGeometry x="350" y="290" width="140" height="30" as="geometry" />
        </mxCell>
      </root>
    </mxGraphModel>
  </diagram>
</mxfile>
